<svg width="120" height="24" viewBox="0 0 120 24" fill="none" xmlns="http://www.w3.org/2000/svg">
<g clip-path="url(#clip0_506_2595)">
<path d="M24.08 24C23.8747 24 23.716 23.944 23.604 23.832C23.492 23.7013 23.436 23.5427 23.436 23.356V5.072C23.436 4.86667 23.492 4.708 23.604 4.596C23.716 4.46533 23.8747 4.4 24.08 4.4H30.912C33.0213 4.4 34.692 4.89467 35.924 5.884C37.156 6.87333 37.772 8.33867 37.772 10.28C37.772 11.7173 37.408 12.8933 36.68 13.808C35.9707 14.704 35 15.3293 33.768 15.684L38.08 23.132C38.136 23.244 38.164 23.3467 38.164 23.44C38.164 23.5893 38.0987 23.72 37.968 23.832C37.856 23.944 37.7253 24 37.576 24H36.232C35.9147 24 35.6813 23.916 35.532 23.748C35.3827 23.58 35.252 23.412 35.14 23.244L31.08 16.132H26.18V23.356C26.18 23.5427 26.1147 23.7013 25.984 23.832C25.872 23.944 25.7133 24 25.508 24H24.08ZM26.18 13.752H30.8C32.2 13.752 33.2453 13.4627 33.936 12.884C34.6267 12.2867 34.972 11.4093 34.972 10.252C34.972 9.11333 34.6267 8.24533 33.936 7.648C33.264 7.05067 32.2187 6.752 30.8 6.752H26.18V13.752ZM40.2177 24C40.0683 24 39.9377 23.944 39.8257 23.832C39.7137 23.72 39.6577 23.5893 39.6577 23.44C39.6577 23.3467 39.667 23.244 39.6857 23.132L46.6297 5.016C46.7043 4.82933 46.807 4.68 46.9377 4.568C47.0683 4.456 47.2643 4.4 47.5257 4.4H49.4297C49.6723 4.4 49.859 4.456 49.9897 4.568C50.139 4.68 50.251 4.82933 50.3257 5.016L57.2417 23.132C57.279 23.244 57.2977 23.3467 57.2977 23.44C57.2977 23.5893 57.2417 23.72 57.1297 23.832C57.0177 23.944 56.887 24 56.7377 24H55.3097C55.0857 24 54.9177 23.944 54.8057 23.832C54.7123 23.72 54.647 23.6173 54.6097 23.524L53.0697 19.548H43.8857L42.3457 23.524C42.327 23.6173 42.2617 23.72 42.1497 23.832C42.0377 23.944 41.8697 24 41.6457 24H40.2177ZM44.6977 17.14H52.2577L48.4777 7.2L44.6977 17.14ZM66.742 24.28C65.0247 24.28 63.5967 23.9627 62.458 23.328C61.338 22.6933 60.4887 21.8067 59.91 20.668C59.3313 19.5293 59.014 18.204 58.958 16.692C58.9393 15.9267 58.93 15.1053 58.93 14.228C58.93 13.3507 58.9393 12.5107 58.958 11.708C59.014 10.196 59.3313 8.87067 59.91 7.732C60.4887 6.59333 61.338 5.70667 62.458 5.072C63.5967 4.43733 65.0247 4.12 66.742 4.12C68.03 4.12 69.1593 4.29733 70.13 4.652C71.1007 5.00667 71.9033 5.48267 72.538 6.08C73.1913 6.67733 73.686 7.34933 74.022 8.096C74.358 8.824 74.5447 9.58 74.582 10.364C74.6007 10.532 74.5447 10.672 74.414 10.784C74.302 10.896 74.162 10.952 73.994 10.952H72.454C72.286 10.952 72.1367 10.9053 72.006 10.812C71.894 10.7187 71.81 10.5507 71.754 10.308C71.4367 8.852 70.8393 7.85333 69.962 7.312C69.1033 6.77067 68.0207 6.5 66.714 6.5C65.2207 6.5 64.0353 6.92933 63.158 7.788C62.2807 8.628 61.8047 9.98133 61.73 11.848C61.674 13.3787 61.674 14.9467 61.73 16.552C61.8047 18.4187 62.2807 19.7813 63.158 20.64C64.0353 21.48 65.2207 21.9 66.714 21.9C68.0207 21.9 69.1033 21.6293 69.962 21.088C70.8393 20.5467 71.4367 19.548 71.754 18.092C71.81 17.8493 71.894 17.6813 72.006 17.588C72.1367 17.4947 72.286 17.448 72.454 17.448H73.994C74.162 17.448 74.302 17.504 74.414 17.616C74.5447 17.728 74.6007 17.868 74.582 18.036C74.5447 18.82 74.358 19.5853 74.022 20.332C73.686 21.06 73.1913 21.7227 72.538 22.32C71.9033 22.9173 71.1007 23.3933 70.13 23.748C69.1593 24.1027 68.03 24.28 66.742 24.28ZM78.7284 24C78.5231 24 78.3644 23.944 78.2524 23.832C78.1404 23.7013 78.0844 23.5427 78.0844 23.356V5.072C78.0844 4.86667 78.1404 4.708 78.2524 4.596C78.3644 4.46533 78.5231 4.4 78.7284 4.4H90.2924C90.4978 4.4 90.6564 4.46533 90.7684 4.596C90.8804 4.708 90.9364 4.86667 90.9364 5.072V6.136C90.9364 6.34133 90.8804 6.5 90.7684 6.612C90.6564 6.724 90.4978 6.78 90.2924 6.78H80.7724V12.912H89.6764C89.8818 12.912 90.0404 12.9773 90.1524 13.108C90.2644 13.22 90.3204 13.3787 90.3204 13.584V14.62C90.3204 14.8067 90.2644 14.9653 90.1524 15.096C90.0404 15.208 89.8818 15.264 89.6764 15.264H80.7724V21.62H90.5164C90.7218 21.62 90.8804 21.676 90.9924 21.788C91.1044 21.9 91.1604 22.0587 91.1604 22.264V23.356C91.1604 23.5427 91.1044 23.7013 90.9924 23.832C90.8804 23.944 90.7218 24 90.5164 24H78.7284Z" fill="url(#paint0_linear_506_2595)"/>
<path d="M12.7078 0.830728V11.8997H14.9998V12.7305H12.7078V23.1693H14.9998V24H11.8885V0H14.9998V0.830728H12.7078ZM6.93422 11.8997H7.09514V24H6.27587V18.0823H4.80579V24H3.98653V11.8997H6.93422ZM6.27587 17.2516V12.7305H4.80579V17.2516H6.27587ZM8.51672 5.89859H7.91515V24H11.055V23.1693H8.73441V6.72894H11.055V5.89821H8.5171L8.51672 5.89859ZM1.59491 20.6908H0.819263V24H0V16.2581H3.11651V20.6908H2.42997L3.08342 24H2.24799L1.59454 20.6908H1.59491ZM0.819263 19.8601H2.29762V17.0884H0.819263V19.8601Z" fill="url(#paint1_linear_506_2595)"/>
</g>
<defs>
<linearGradient id="paint0_linear_506_2595" x1="21" y1="14" x2="93" y2="14" gradientUnits="userSpaceOnUse">
<stop stop-color="#B67F5A"/>
<stop offset="0.17" stop-color="#E2AF8B"/>
<stop offset="0.29" stop-color="#F9C8A4"/>
<stop offset="0.52" stop-color="#D49E86"/>
<stop offset="1" stop-color="#945B3A"/>
</linearGradient>
<linearGradient id="paint1_linear_506_2595" x1="0" y1="12" x2="14.9998" y2="12" gradientUnits="userSpaceOnUse">
<stop stop-color="#B67F5A"/>
<stop offset="0.17" stop-color="#E2AF8B"/>
<stop offset="0.29" stop-color="#F9C8A4"/>
<stop offset="0.52" stop-color="#D49E86"/>
<stop offset="1" stop-color="#945B3A"/>
</linearGradient>
<clipPath id="clip0_506_2595">
<rect width="120" height="24" fill="white"/>
</clipPath>
</defs>
</svg>
