<svg width="30" height="30" viewBox="0 0 30 30" fill="none" xmlns="http://www.w3.org/2000/svg">
<path d="M21.8847 1.03841V14.8747H24.7497V15.9131H21.8847V28.9616H24.7497V30H20.8606V0H24.7497V1.03841H21.8847ZM14.6678 14.8747H14.8689V30H13.8448V22.6029H12.0072V30H10.9832V14.8747H14.6678ZM13.8448 21.5645V15.9131H12.0072V21.5645H13.8448ZM16.6459 7.37324H15.8939V30H19.8187V28.9616H16.918V8.41117H19.8187V7.37276H16.6464L16.6459 7.37324ZM7.99364 25.8635H7.02408V30H6V20.3226H9.89563V25.8635H9.03746L9.85428 30H8.80999L7.99317 25.8635H7.99364ZM7.02408 24.8251H8.87202V21.3606H7.02408V24.8251Z" fill="url(#paint0_linear_506_2605)"/>
<defs>
<linearGradient id="paint0_linear_506_2605" x1="6" y1="15" x2="24.7497" y2="15" gradientUnits="userSpaceOnUse">
<stop stop-color="#B67F5A"/>
<stop offset="0.17" stop-color="#E2AF8B"/>
<stop offset="0.29" stop-color="#F9C8A4"/>
<stop offset="0.52" stop-color="#D49E86"/>
<stop offset="1" stop-color="#945B3A"/>
</linearGradient>
</defs>
</svg>
