<svg width="220" height="347" viewBox="0 0 220 347" fill="none" xmlns="http://www.w3.org/2000/svg">
<path d="M186.384 12.0111V172.053H220V184.064H186.384V334.994H220V347.006H174.368V0H220V12.0111H186.384ZM101.703 172.053H104.064V347.006H92.0476V261.445H70.486V347.006H58.47V172.053H101.703ZM92.0476 249.434V184.064H70.486V249.434H92.0476ZM124.914 85.2851H116.091V347.006H162.142V334.994H128.107V97.2907H162.142V85.2796H124.919L124.914 85.2851ZM23.3924 299.159H12.016V347.006H0V235.069H45.7095V299.159H35.6401L45.2242 347.006H32.971L23.3869 299.159H23.3924ZM12.016 287.148H33.699V247.074H12.016V287.148Z" fill="url(#paint0_linear_21026_28741)"/>
<defs>
<linearGradient id="paint0_linear_21026_28741" x1="0" y1="173.503" x2="220" y2="173.503" gradientUnits="userSpaceOnUse">
<stop stop-color="#B67F5A"/>
<stop offset="0.17" stop-color="#E2AF8B"/>
<stop offset="0.29" stop-color="#F9C8A4"/>
<stop offset="0.52" stop-color="#D49E86"/>
<stop offset="1" stop-color="#945B3A"/>
</linearGradient>
</defs>
</svg>
